<svg width="380" height="380" viewBox="0 0 380 380" fill="none" xmlns="http://www.w3.org/2000/svg">
<rect width="380" height="380" rx="190" fill="#EE3124"/>
<mask id="path-2-outside-1_225_2227" maskUnits="userSpaceOnUse" x="97.6423" y="92.5" width="149" height="196" fill="black">
<rect fill="white" x="97.6423" y="92.5" width="149" height="196"/>
<path d="M193.082 285.3C176.282 285.3 160.842 281.22 146.762 273.06C132.682 264.74 121.482 253.38 113.162 238.98C105.002 224.42 100.922 208.1 100.922 190.02C100.922 172.58 105.162 156.66 113.642 142.26C122.282 127.86 133.722 116.5 147.962 108.18C162.362 99.86 177.642 95.7 193.802 95.7C205.002 95.7 213.882 96.74 220.442 98.82C227.002 100.74 234.602 104.18 243.242 109.14V118.02C235.082 112.42 227.482 108.5 220.442 106.26C213.562 103.86 204.922 102.66 194.522 102.66C178.682 102.66 164.202 106.74 151.082 114.9C138.122 122.9 127.802 133.7 120.122 147.3C112.602 160.74 108.842 175.22 108.842 190.74C108.842 206.42 112.682 220.98 120.362 234.42C128.042 247.86 138.202 258.58 150.842 266.58C163.642 274.42 177.402 278.34 192.122 278.34C202.682 278.34 211.882 277.14 219.722 274.74C227.562 272.18 235.402 268.26 243.242 262.98V271.86C235.562 276.5 227.642 279.86 219.482 281.94C211.482 284.18 202.682 285.3 193.082 285.3Z"/>
</mask>
<path d="M193.082 285.3C176.282 285.3 160.842 281.22 146.762 273.06C132.682 264.74 121.482 253.38 113.162 238.98C105.002 224.42 100.922 208.1 100.922 190.02C100.922 172.58 105.162 156.66 113.642 142.26C122.282 127.86 133.722 116.5 147.962 108.18C162.362 99.86 177.642 95.7 193.802 95.7C205.002 95.7 213.882 96.74 220.442 98.82C227.002 100.74 234.602 104.18 243.242 109.14V118.02C235.082 112.42 227.482 108.5 220.442 106.26C213.562 103.86 204.922 102.66 194.522 102.66C178.682 102.66 164.202 106.74 151.082 114.9C138.122 122.9 127.802 133.7 120.122 147.3C112.602 160.74 108.842 175.22 108.842 190.74C108.842 206.42 112.682 220.98 120.362 234.42C128.042 247.86 138.202 258.58 150.842 266.58C163.642 274.42 177.402 278.34 192.122 278.34C202.682 278.34 211.882 277.14 219.722 274.74C227.562 272.18 235.402 268.26 243.242 262.98V271.86C235.562 276.5 227.642 279.86 219.482 281.94C211.482 284.18 202.682 285.3 193.082 285.3Z" fill="#F8F6F4"/>
<path d="M146.762 273.06L145.236 275.643L145.247 275.649L145.258 275.656L146.762 273.06ZM113.162 238.98L110.545 240.447L110.555 240.464L110.565 240.481L113.162 238.98ZM113.642 142.26L111.07 140.717L111.064 140.727L111.057 140.738L113.642 142.26ZM147.962 108.18L146.462 105.582L146.455 105.586L146.449 105.59L147.962 108.18ZM220.442 98.82L219.536 101.68L219.568 101.69L219.6 101.699L220.442 98.82ZM243.242 109.14H246.242V107.403L244.736 106.538L243.242 109.14ZM243.242 118.02L241.545 120.494L246.242 123.717V118.02H243.242ZM220.442 106.26L219.454 109.093L219.493 109.106L219.533 109.119L220.442 106.26ZM151.082 114.9L152.658 117.453L152.667 117.447L151.082 114.9ZM120.122 147.3L117.51 145.825L117.504 145.835L120.122 147.3ZM120.362 234.42L117.758 235.908V235.908L120.362 234.42ZM150.842 266.58L149.238 269.115L149.257 269.127L149.275 269.138L150.842 266.58ZM219.722 274.74L220.6 277.609L220.627 277.6L220.654 277.592L219.722 274.74ZM243.242 262.98H246.242V257.343L241.567 260.492L243.242 262.98ZM243.242 271.86L244.794 274.428L246.242 273.553V271.86H243.242ZM219.482 281.94L218.741 279.033L218.707 279.042L218.673 279.051L219.482 281.94ZM193.082 285.3V282.3C176.793 282.3 161.874 278.351 148.267 270.464L146.762 273.06L145.258 275.656C159.81 284.089 175.772 288.3 193.082 288.3V285.3ZM146.762 273.06L148.289 270.477C134.661 262.424 123.826 251.44 115.76 237.479L113.162 238.98L110.565 240.481C119.138 255.32 130.704 267.056 145.236 275.643L146.762 273.06ZM113.162 238.98L115.779 237.513C107.891 223.438 103.922 207.63 103.922 190.02H100.922H97.9223C97.9223 208.57 102.114 225.402 110.545 240.447L113.162 238.98ZM100.922 190.02H103.922C103.922 173.091 108.031 157.7 116.227 143.782L113.642 142.26L111.057 140.738C102.293 155.62 97.9223 172.069 97.9223 190.02H100.922ZM113.642 142.26L116.215 143.803C124.6 129.828 135.679 118.831 149.476 110.77L147.962 108.18L146.449 105.59C131.765 114.169 119.964 125.892 111.07 140.717L113.642 142.26ZM147.962 108.18L149.463 110.778C163.421 102.713 178.185 98.7 193.802 98.7V95.7V92.7C177.1 92.7 161.304 97.0068 146.462 105.582L147.962 108.18ZM193.802 95.7V98.7C204.862 98.7 213.394 99.7325 219.536 101.68L220.442 98.82L221.349 95.9603C214.37 93.7475 205.143 92.7 193.802 92.7V95.7ZM220.442 98.82L219.6 101.699C225.855 103.53 233.23 106.851 241.749 111.742L243.242 109.14L244.736 106.538C235.975 101.509 228.15 97.9499 221.285 95.9408L220.442 98.82ZM243.242 109.14H240.242V118.02H243.242H246.242V109.14H243.242ZM243.242 118.02L244.94 115.546C236.614 109.833 228.749 105.755 221.352 103.401L220.442 106.26L219.533 109.119C226.216 111.245 233.55 115.007 241.545 120.494L243.242 118.02ZM220.442 106.26L221.43 103.427C214.129 100.88 205.127 99.66 194.522 99.66V102.66V105.66C204.717 105.66 212.996 106.84 219.454 109.093L220.442 106.26ZM194.522 102.66V99.66C178.137 99.66 163.106 103.889 149.498 112.353L151.082 114.9L152.667 117.447C165.299 109.591 179.227 105.66 194.522 105.66V102.66ZM151.082 114.9L149.507 112.347C136.104 120.62 125.432 131.796 117.51 145.825L120.122 147.3L122.735 148.775C130.172 135.604 140.14 125.18 152.658 117.453L151.082 114.9ZM120.122 147.3L117.504 145.835C109.732 159.726 105.842 174.711 105.842 190.74H108.842H111.842C111.842 175.729 115.473 161.754 122.74 148.765L120.122 147.3ZM108.842 190.74H105.842C105.842 206.935 109.815 222.009 117.758 235.908L120.362 234.42L122.967 232.932C115.55 219.951 111.842 205.905 111.842 190.74H108.842ZM120.362 234.42L117.758 235.908C125.672 249.758 136.169 260.844 149.238 269.115L150.842 266.58L152.447 264.045C140.235 256.316 130.413 245.962 122.967 232.932L120.362 234.42ZM150.842 266.58L149.275 269.138C162.537 277.261 176.838 281.34 192.122 281.34V278.34V275.34C177.967 275.34 164.747 271.579 152.409 264.022L150.842 266.58ZM192.122 278.34V281.34C202.899 281.34 212.408 280.117 220.6 277.609L219.722 274.74L218.844 271.871C211.357 274.163 202.466 275.34 192.122 275.34V278.34ZM219.722 274.74L220.654 277.592C228.793 274.934 236.881 270.881 244.918 265.468L243.242 262.98L241.567 260.492C233.924 265.639 226.332 269.426 218.791 271.888L219.722 274.74ZM243.242 262.98H240.242V271.86H243.242H246.242V262.98H243.242ZM243.242 271.86L241.691 269.292C234.246 273.79 226.598 277.03 218.741 279.033L219.482 281.94L220.223 284.847C228.687 282.69 236.878 279.21 244.794 274.428L243.242 271.86ZM219.482 281.94L218.673 279.051C210.974 281.207 202.45 282.3 193.082 282.3V285.3V288.3C202.914 288.3 211.991 287.153 220.291 284.829L219.482 281.94Z" fill="#F8F6F4" mask="url(#path-2-outside-1_225_2227)"/>
</svg>
